# xmcd
#
# Track frame offsets:
#	150
#	17250
#	37950
#	51685
#	79360
#	98800
#	123899
#	150675
#	167175
#	188625
#	204825
#	222310
#	236860
#	250350
#	277650
#	293025
#	313205
#	333300
#
# Disc length: 4598 seconds
#
# Revision: 0
# Processed by: cddbd v1.5.2PL0 Copyright (c) Steve Scherf et al.
# Submitted via: dBpowerAMP V4.0
#
DISCID=fc11f412
DTITLE=Luis Eduardo Aute - Auterretratos Vol. 3
DYEAR=2009
DGENRE=Cantaautor
TTITLE0=ahora si, ahora no
TTITLE1=giraluna
TTITLE2=no se vivir sin ti
TTITLE3=arrebato
TTITLE4=te quiero
TTITLE5=esta noche
TTITLE6=quinta del sordo
TTITLE7=barrio entrañable
TTITLE8=abrazame
TTITLE9=probablemente te quiero
TTITLE10=el resto es humo
TTITLE11=prefiero amar
TTITLE12=quiero vivir contigo
TTITLE13=querencia
TTITLE14=lentamente
TTITLE15=alevosia
TTITLE16=a dia de hoy
TTITLE17=de alguna manera
EXTD=
EXTT0=
EXTT1=
EXTT2=
EXTT3=
EXTT4=
EXTT5=
EXTT6=
EXTT7=
EXTT8=
EXTT9=
EXTT10=
EXTT11=
EXTT12=
EXTT13=
EXTT14=
EXTT15=
EXTT16=
EXTT17=
PLAYORDER=
